{
  "accessors": [
    {
      "bufferView": 0,
      "byteOffset": 0,
      "componentType": 5121,
      "count": 60,
      "type": "SCALAR",
      "name": "accBatch_0"
    },
    {
      "bufferView": 1,
      "byteOffset": 0,
      "componentType": 5121,
      "count": 12,
      "type": "SCALAR",
      "name": "accBatch_1"
    },
    {
      "bufferView": 2,
      "byteOffset": 0,
      "componentType": 5121,
      "count": 4036,
      "type": "SCALAR",
      "name": "accBatch_2"
    },
    {
      "bufferView": 3,
      "byteOffset": 0,
      "componentType": 5121,
      "count": 48534,
      "type": "SCALAR",
      "name": "accBatch_3"
    },
    {
      "bufferView": 4,
      "byteOffset": 0,
      "componentType": 5121,
      "count": 76,
      "type": "SCALAR",
      "name": "accBatch_4"
    },
    {
      "bufferView": 5,
      "byteOffset": 0,
      "componentType": 5121,
      "count": 17761,
      "type": "SCALAR",
      "name": "accBatch_5"
    },
    {
      "bufferView": 6,
      "byteOffset": 0,
      "componentType": 5123,
      "count": 12,
      "extensions": {
        "WEB3D_quantized_attributes": {
          "decodeMatrix": [0.0004913405050746903, 0, 0, 1],
          "decodedMax": [32.200000000069835],
          "decodedMin": [0]
        }
      },
      "type": "SCALAR",
      "name": "accDistance1"
    },
    {
      "bufferView": 7,
      "byteOffset": 0,
      "componentType": 5123,
      "count": 110,
      "type": "SCALAR",
      "name": "accIndex0"
    },
    {
      "bufferView": 8,
      "byteOffset": 0,
      "componentType": 5123,
      "count": 18,
      "type": "SCALAR",
      "name": "accIndex1"
    },
    {
      "bufferView": 9,
      "byteOffset": 0,
      "componentType": 5123,
      "count": 11484,
      "type": "SCALAR",
      "name": "accIndices2"
    },
    {
      "bufferView": 10,
      "byteOffset": 0,
      "componentType": 5123,
      "count": 184710,
      "type": "SCALAR",
      "name": "accIndices3"
    },
    {
      "bufferView": 11,
      "byteOffset": 0,
      "componentType": 5123,
      "count": 120,
      "type": "SCALAR",
      "name": "accIndices4"
    },
    {
      "bufferView": 12,
      "byteOffset": 0,
      "componentType": 5123,
      "count": 57207,
      "type": "SCALAR",
      "name": "accIndices5"
    },
    {
      "bufferView": 13,
      "byteOffset": 0,
      "componentType": 5121,
      "count": 12,
      "max": [255, 255, 255],
      "min": [0, 0, 0],
      "type": "VEC2",
      "name": "accNext1"
    },
    {
      "bufferView": 14,
      "byteOffset": 0,
      "componentType": 5121,
      "count": 48534,
      "max": [255, 255, 255],
      "min": [0, 0, 0],
      "type": "VEC2",
      "name": "accNormal3"
    },
    {
      "bufferView": 15,
      "byteOffset": 0,
      "componentType": 5121,
      "count": 76,
      "max": [255, 255, 255],
      "min": [0, 0, 0],
      "type": "VEC2",
      "name": "accNormal4"
    },
    {
      "bufferView": 16,
      "byteOffset": 0,
      "componentType": 5121,
      "count": 17761,
      "max": [255, 255, 255],
      "min": [0, 0, 0],
      "type": "VEC2",
      "name": "accNormal5"
    },
    {
      "bufferView": 17,
      "byteOffset": 0,
      "componentType": 5123,
      "count": 12,
      "extensions": {
        "WEB3D_quantized_attributes": {
          "decodeMatrix": [
            0.000030518043793392844,
            0,
            0,
            0,
            0.00006105134660868238,
            0,
            -1,
            0,
            1
          ],
          "decodedMax": [1, 4.001],
          "decodedMin": [-1, 0]
        }
      },
      "type": "VEC2",
      "name": "accParam1"
    },
    {
      "bufferView": 18,
      "byteOffset": 0,
      "componentType": 5123,
      "count": 60,
      "extensions": {
        "WEB3D_quantized_attributes": {
          "decodeMatrix": [
            0.000030518043793392844,
            0,
            0,
            0,
            0,
            0.000030518043793392844,
            0,
            0,
            0,
            0,
            0,
            0,
            -200.3298574804794,
            -302.96489328029566,
            0.11338321454849182,
            1
          ],
          "decodedMax": [
            -198.3298574804794,
            -300.96489328029566,
            0.11338321454849182
          ],
          "decodedMin": [
            -200.3298574804794,
            -302.96489328029566,
            0.11338321454849182
          ]
        }
      },
      "max": [-198.3298574804794, -300.96489328029566, 0.11338321454849182],
      "min": [-200.3298574804794, -302.96489328029566, 0.11338321454849182],
      "type": "VEC3",
      "name": "accPosition0"
    },
    {
      "bufferView": 19,
      "byteOffset": 0,
      "componentType": 5123,
      "count": 12,
      "extensions": {
        "WEB3D_quantized_attributes": {
          "decodeMatrix": [
            0.00024088746128546437,
            0,
            0,
            0,
            0,
            0.0009450755060798587,
            0,
            0,
            0,
            0,
            0.000011095073882986803,
            0,
            184.64298404450528,
            241.89240890432876,
            2.4362675476269517,
            1
          ],
          "decodedMax": [
            200.4295438198482,
            303.8279321952723,
            3.163383214548492
          ],
          "decodedMin": [
            184.64298404450528,
            241.89240890432876,
            2.4362675476269517
          ]
        }
      },
      "max": [200.4295438198482, 303.8279321952723, 3.163383214548492],
      "min": [184.64298404450528, 241.89240890432876, 2.4362675476269517],
      "type": "VEC3",
      "name": "accPosition1"
    },
    {
      "bufferView": 20,
      "byteOffset": 0,
      "componentType": 5123,
      "count": 4036,
      "extensions": {
        "WEB3D_quantized_attributes": {
          "decodeMatrix": [
            0.00009415796615192775,
            0,
            0,
            0,
            0,
            0.00004829426938573407,
            0,
            0,
            0,
            0,
            1.1435119274005961e-20,
            0,
            -200.70847210728098,
            -303.8179554813076,
            0.11338321454849165,
            1
          ],
          "decodedMax": [
            -194.5378297955144,
            -300.6529905371135,
            0.1133832145484924
          ],
          "decodedMin": [
            -200.70847210728098,
            -303.8179554813076,
            0.11338321454849165
          ]
        }
      },
      "max": [-194.5378297955144, -300.6529905371135, 0.1133832145484924],
      "min": [-200.70847210728098, -303.8179554813076, 0.11338321454849165],
      "type": "VEC3",
      "name": "accPosition2"
    },
    {
      "bufferView": 21,
      "byteOffset": 0,
      "componentType": 5123,
      "count": 48534,
      "extensions": {
        "WEB3D_quantized_attributes": {
          "decodeMatrix": [
            0.003699372925295112,
            0,
            0,
            0,
            0,
            0.00479840246080715,
            0,
            0,
            0,
            0,
            0.00034217758967137243,
            0,
            -41.77802695029383,
            -10.60437536726382,
            -12.710165452174593,
            1
          ],
          "decodedMax": [
            200.66037770892135,
            303.8589299017327,
            9.714442886938796
          ],
          "decodedMin": [
            -41.77802695029383,
            -10.60437536726382,
            -12.710165452174593
          ]
        }
      },
      "max": [200.66037770892135, 303.8589299017327, 9.714442886938796],
      "min": [-41.77802695029383, -10.60437536726382, -12.710165452174593],
      "type": "VEC3",
      "name": "accPosition3"
    },
    {
      "bufferView": 22,
      "byteOffset": 0,
      "componentType": 5123,
      "count": 76,
      "extensions": {
        "WEB3D_quantized_attributes": {
          "decodeMatrix": [
            0.00024403616822101732,
            0,
            0,
            0,
            0,
            0.0009460214954371585,
            0,
            0,
            0,
            0,
            0.000020250487021030815,
            0,
            184.58339573161567,
            241.86141119806805,
            2.436267547626952,
            1
          ],
          "decodedMax": [
            200.57630601598004,
            303.85892990154224,
            3.7633832145502066
          ],
          "decodedMin": [
            184.58339573161567,
            241.86141119806805,
            2.436267547626952
          ]
        }
      },
      "max": [200.57630601598004, 303.85892990154224, 3.7633832145502066],
      "min": [184.58339573161567, 241.86141119806805, 2.436267547626952],
      "type": "VEC3",
      "name": "accPosition4"
    },
    {
      "bufferView": 23,
      "byteOffset": 0,
      "componentType": 5123,
      "count": 17761,
      "extensions": {
        "WEB3D_quantized_attributes": {
          "decodeMatrix": [
            0.0037431944657759677,
            0,
            0,
            0,
            0,
            0.004674875683933063,
            0,
            0,
            0,
            0,
            0.0004490236732905621,
            0,
            -44.58131364544819,
            -19.869535336362794,
            -14.713383214548493,
            1
          ],
          "decodedMax": [
            200.72893566917983,
            286.4984426101905,
            14.713383214548493
          ],
          "decodedMin": [
            -44.58131364544819,
            -19.869535336362794,
            -14.713383214548493
          ]
        }
      },
      "max": [200.72893566917983, 286.4984426101905, 14.713383214548493],
      "min": [-44.58131364544819, -19.869535336362794, -14.713383214548493],
      "type": "VEC3",
      "name": "accPosition5"
    },
    {
      "bufferView": 24,
      "byteOffset": 0,
      "componentType": 5121,
      "count": 12,
      "max": [255, 255, 255],
      "min": [0, 0, 0],
      "type": "VEC2",
      "name": "accPrev1"
    },
    {
      "bufferView": 25,
      "byteOffset": 0,
      "componentType": 5123,
      "count": 12,
      "extensions": {
        "WEB3D_quantized_attributes": {
          "decodeMatrix": [
            0.00024088746128546437,
            0,
            0,
            0,
            0,
            0.0009450755060798587,
            0,
            0,
            0,
            0,
            0.000011095073882986803,
            0,
            184.64298404450528,
            241.89240890432876,
            2.4362675476269517,
            1
          ],
          "decodedMax": [
            200.4295438198482,
            303.8279321952723,
            3.163383214548492
          ],
          "decodedMin": [
            184.64298404450528,
            241.89240890432876,
            2.4362675476269517
          ]
        }
      },
      "type": "VEC3",
      "name": "accTexScalePnt1"
    }
  ],
  "bufferViews": [
    {
      "buffer": 0,
      "byteLength": 60,
      "byteOffset": 0,
      "target": 34962,
      "name": "bvBatch_0",
      "byteStride": 1
    },
    {
      "buffer": 0,
      "byteLength": 12,
      "byteOffset": 60,
      "target": 34962,
      "name": "bvBatch_1",
      "byteStride": 1
    },
    {
      "buffer": 0,
      "byteLength": 4036,
      "byteOffset": 72,
      "target": 34962,
      "name": "bvBatch_2",
      "byteStride": 1
    },
    {
      "buffer": 0,
      "byteLength": 48534,
      "byteOffset": 4108,
      "target": 34962,
      "name": "bvBatch_3",
      "byteStride": 1
    },
    {
      "buffer": 0,
      "byteLength": 76,
      "byteOffset": 52644,
      "target": 34962,
      "name": "bvBatch_4",
      "byteStride": 1
    },
    {
      "buffer": 0,
      "byteLength": 17761,
      "byteOffset": 52720,
      "target": 34962,
      "name": "bvBatch_5",
      "byteStride": 1
    },
    {
      "buffer": 0,
      "byteLength": 24,
      "byteOffset": 70484,
      "target": 34962,
      "name": "bvDistance1",
      "byteStride": 2
    },
    {
      "buffer": 0,
      "byteLength": 220,
      "byteOffset": 70508,
      "target": 34963,
      "name": "bvIndex0"
    },
    {
      "buffer": 0,
      "byteLength": 36,
      "byteOffset": 70728,
      "target": 34963,
      "name": "bvIndex1"
    },
    {
      "buffer": 0,
      "byteLength": 22968,
      "byteOffset": 70764,
      "target": 34963,
      "name": "bvIndices2"
    },
    {
      "buffer": 0,
      "byteLength": 369420,
      "byteOffset": 93732,
      "target": 34963,
      "name": "bvIndices3"
    },
    {
      "buffer": 0,
      "byteLength": 240,
      "byteOffset": 463152,
      "target": 34963,
      "name": "bvIndices4"
    },
    {
      "buffer": 0,
      "byteLength": 114414,
      "byteOffset": 463392,
      "target": 34963,
      "name": "bvIndices5"
    },
    {
      "buffer": 0,
      "byteLength": 24,
      "byteOffset": 577808,
      "target": 34962,
      "name": "bvNext1",
      "byteStride": 2
    },
    {
      "buffer": 0,
      "byteLength": 97068,
      "byteOffset": 577832,
      "target": 34962,
      "name": "bvNormal3",
      "byteStride": 2
    },
    {
      "buffer": 0,
      "byteLength": 152,
      "byteOffset": 674900,
      "target": 34962,
      "name": "bvNormal4",
      "byteStride": 2
    },
    {
      "buffer": 0,
      "byteLength": 35522,
      "byteOffset": 675052,
      "target": 34962,
      "name": "bvNormal5",
      "byteStride": 2
    },
    {
      "buffer": 0,
      "byteLength": 48,
      "byteOffset": 710576,
      "target": 34962,
      "name": "bvParam1",
      "byteStride": 4
    },
    {
      "buffer": 0,
      "byteLength": 360,
      "byteOffset": 710624,
      "target": 34962,
      "name": "bvPosition0",
      "byteStride": 6
    },
    {
      "buffer": 0,
      "byteLength": 72,
      "byteOffset": 710984,
      "target": 34962,
      "name": "bvPosition1",
      "byteStride": 6
    },
    {
      "buffer": 0,
      "byteLength": 24216,
      "byteOffset": 711056,
      "target": 34962,
      "name": "bvPosition2",
      "byteStride": 6
    },
    {
      "buffer": 0,
      "byteLength": 291204,
      "byteOffset": 735272,
      "target": 34962,
      "name": "bvPosition3",
      "byteStride": 6
    },
    {
      "buffer": 0,
      "byteLength": 456,
      "byteOffset": 1026476,
      "target": 34962,
      "name": "bvPosition4",
      "byteStride": 6
    },
    {
      "buffer": 0,
      "byteLength": 106566,
      "byteOffset": 1026932,
      "target": 34962,
      "name": "bvPosition5",
      "byteStride": 6
    },
    {
      "buffer": 0,
      "byteLength": 24,
      "byteOffset": 1133500,
      "target": 34962,
      "name": "bvPrev1",
      "byteStride": 2
    },
    {
      "buffer": 0,
      "byteLength": 72,
      "byteOffset": 1133524,
      "target": 34962,
      "name": "bvTexScalePnt1",
      "byteStride": 6
    },
    { "buffer": 0, "byteOffset": 1133596, "byteLength": 92 },
    { "buffer": 0, "byteOffset": 1133688, "byteLength": 98 },
    { "buffer": 0, "byteOffset": 1133788, "byteLength": 581 },
    { "buffer": 0, "byteOffset": 1134372, "byteLength": 288 },
    { "buffer": 0, "byteOffset": 1134660, "byteLength": 4262 },
    { "buffer": 0, "byteOffset": 1138924, "byteLength": 2102 },
    { "buffer": 0, "byteOffset": 1141028, "byteLength": 1085 },
    { "buffer": 0, "byteOffset": 1142116, "byteLength": 105 },
    { "buffer": 0, "byteOffset": 1142224, "byteLength": 365 }
  ],
  "buffers": [
    {
      "name": "binary_glTF",
      "byteLength": 1142592,
      "uri": "data:application/octet-stream;base64,"
    }
  ],
  "extensions": {
    "CESIUM_RTC": { "center": [0, 0, 0] },
    "KHR_techniques_webgl": {
      "programs": [
        {
          "name": "SimpleSolidPolyline03dProgram",
          "fragmentShader": 0,
          "vertexShader": 1,
          "glExtensions": ["OES_element_index_uint"]
        },
        {
          "name": "TesselatedTexturedPolyline03dProgram",
          "fragmentShader": 2,
          "vertexShader": 3,
          "glExtensions": ["OES_element_index_uint"]
        },
        {
          "name": "Untextured0Program",
          "fragmentShader": 4,
          "vertexShader": 5,
          "glExtensions": ["OES_element_index_uint"]
        },
        {
          "name": "UntexturedUnlit0Program",
          "fragmentShader": 6,
          "vertexShader": 7,
          "glExtensions": ["OES_element_index_uint"]
        }
      ],
      "shaders": [
        {
          "type": 35632,
          "name": "SimpleSolidPolyline03dFragmentShader",
          "bufferView": 27
        },
        {
          "type": 35633,
          "name": "SimpleSolidPolyline03dVertexShader",
          "bufferView": 28
        },
        {
          "type": 35632,
          "name": "TesselatedTexturedPolyline03dFragmentShader",
          "bufferView": 29
        },
        {
          "type": 35633,
          "name": "TesselatedTexturedPolyline03dVertexShader",
          "bufferView": 30
        },
        {
          "type": 35632,
          "name": "Untextured0FragmentShader",
          "bufferView": 31
        },
        { "type": 35633, "name": "Untextured0VertexShader", "bufferView": 32 },
        {
          "type": 35632,
          "name": "UntexturedUnlit0FragmentShader",
          "bufferView": 33
        },
        {
          "type": 35633,
          "name": "UntexturedUnlit0VertexShader",
          "bufferView": 34
        }
      ],
      "techniques": [
        {
          "name": "SimpleSolidPolyline03dTechnique",
          "program": 0,
          "attributes": {
            "a_batchId": { "semantic": "_BATCHID" },
            "a_pos": { "semantic": "POSITION" }
          },
          "uniforms": {
            "u_color": { "type": 35666, "semantic": "_3DTILESDIFFUSE" },
            "u_mv": { "type": 35676, "semantic": "CESIUM_RTC_MODELVIEW" },
            "u_proj": { "type": 35676, "semantic": "PROJECTION" }
          }
        },
        {
          "name": "TesselatedTexturedPolyline03dTechnique",
          "program": 1,
          "attributes": {
            "a_batchId": { "semantic": "_BATCHID" },
            "a_distance": { "semantic": "_DISTANCE" },
            "a_next": { "semantic": "_NEXT" },
            "a_param": { "semantic": "_PARAM" },
            "a_pos": { "semantic": "POSITION" },
            "a_prev": { "semantic": "_PREV" },
            "a_texScalePnt": { "semantic": "_TEXSCALEPNT" },
            "a_texc": { "semantic": "TEXCOORD_0" }
          },
          "uniforms": {
            "u_color": { "type": 35666, "semantic": "_3DTILESDIFFUSE" },
            "u_model": { "type": 35676, "semantic": "MODEL" },
            "u_mv": { "type": 35676, "semantic": "CESIUM_RTC_MODELVIEW" },
            "u_proj": { "type": 35676, "semantic": "PROJECTION" },
            "u_tex": { "type": 35678, "semantic": "_3DTILESDIFFUSE" },
            "u_texLength": { "type": 5126 },
            "u_width": { "type": 5126 }
          }
        },
        {
          "name": "Untextured0Technique",
          "program": 2,
          "attributes": {
            "a_batchId": { "semantic": "_BATCHID" },
            "a_colorIndex": { "semantic": "_COLORINDEX" },
            "a_n": { "semantic": "NORMAL" },
            "a_pos": { "semantic": "POSITION" }
          },
          "uniforms": {
            "u_color": { "type": 35666, "semantic": "_3DTILESDIFFUSE" },
            "u_mv": { "type": 35676, "semantic": "CESIUM_RTC_MODELVIEW" },
            "u_nmx": { "type": 35675, "semantic": "MODELVIEWINVERSETRANSPOSE" },
            "u_proj": { "type": 35676, "semantic": "PROJECTION" },
            "u_specularColor": { "type": 35665 },
            "u_specularExponent": { "type": 5126 }
          }
        },
        {
          "name": "UntexturedUnlit0Technique",
          "program": 3,
          "attributes": {
            "a_batchId": { "semantic": "_BATCHID" },
            "a_colorIndex": { "semantic": "_COLORINDEX" },
            "a_pos": { "semantic": "POSITION" }
          },
          "uniforms": {
            "u_color": { "type": 35666, "semantic": "_3DTILESDIFFUSE" },
            "u_mv": { "type": 35676, "semantic": "CESIUM_RTC_MODELVIEW" },
            "u_proj": { "type": 35676, "semantic": "PROJECTION" }
          }
        }
      ]
    }
  },
  "extensionsUsed": [
    "CESIUM_RTC",
    "WEB3D_quantized_attributes",
    "KHR_techniques_webgl"
  ],
  "images": [{ "name": "image_1", "bufferView": 26, "mimeType": "image/png" }],
  "materials": [
    {
      "name": "Material_2",
      "doubleSided": true,
      "extensions": {
        "KHR_techniques_webgl": {
          "technique": 3,
          "values": { "u_color": [1, 1, 1, 1] }
        }
      },
      "emissiveFactor": [0, 0, 0],
      "alphaMode": "OPAQUE"
    },
    {
      "name": "Material_3",
      "doubleSided": true,
      "extensions": {
        "KHR_techniques_webgl": {
          "technique": 2,
          "values": {
            "u_color": [1, 1, 1, 1],
            "u_specularColor": [1, 1, 1],
            "u_specularExponent": 43.2
          }
        }
      },
      "emissiveFactor": [0, 0, 0],
      "alphaMode": "OPAQUE"
    },
    {
      "materialId": "36",
      "name": "Concrete, Cast-in-Place416449",
      "doubleSided": true,
      "extensions": {
        "KHR_techniques_webgl": {
          "technique": 2,
          "values": {
            "u_color": [
              0.752941176470588,
              0.752941176470588,
              0.752941176470588,
              1
            ],
            "u_specularColor": [1, 1, 1],
            "u_specularExponent": 43.2
          }
        }
      },
      "emissiveFactor": [0, 0, 0],
      "alphaMode": "OPAQUE"
    },
    {
      "materialId": "37",
      "name": "Render Material 255-255-25167",
      "doubleSided": true,
      "extensions": {
        "KHR_techniques_webgl": {
          "technique": 2,
          "values": {
            "u_color": [1, 1, 1, 1],
            "u_specularColor": [1, 1, 1],
            "u_specularExponent": 43.2
          }
        }
      },
      "emissiveFactor": [0, 0, 0],
      "alphaMode": "OPAQUE"
    },
    {
      "name": "PolylineMaterial_0",
      "doubleSided": true,
      "extensions": {
        "KHR_techniques_webgl": {
          "technique": 0,
          "values": { "u_color": [1, 1, 1, 1] }
        }
      },
      "emissiveFactor": [0, 0, 0],
      "alphaMode": "OPAQUE"
    },
    {
      "name": "PolylineMaterial_1",
      "doubleSided": true,
      "extensions": {
        "KHR_techniques_webgl": {
          "technique": 1,
          "values": {
            "u_color": [1, 1, 0, 1],
            "u_tex": { "index": 0, "texCoord": 0 },
            "u_texLength": -32,
            "u_width": 1
          }
        }
      },
      "emissiveFactor": [0, 0, 0],
      "alphaMode": "OPAQUE"
    }
  ],
  "meshes": [
    {
      "primitives": [
        {
          "attributes": { "POSITION": 18, "_BATCHID": 0 },
          "indices": 7,
          "material": 4,
          "mode": 1
        },
        {
          "attributes": {
            "POSITION": 19,
            "_BATCHID": 1,
            "_DISTANCE": 6,
            "_NEXT": 13,
            "_PARAM": 17,
            "_PREV": 24,
            "_TEXSCALEPNT": 25
          },
          "indices": 8,
          "material": 5,
          "mode": 4
        },
        {
          "attributes": { "POSITION": 20, "_BATCHID": 2 },
          "indices": 9,
          "material": 0,
          "mode": 4
        },
        {
          "attributes": { "NORMAL": 14, "POSITION": 21, "_BATCHID": 3 },
          "indices": 10,
          "material": 1,
          "mode": 4
        },
        {
          "attributes": { "NORMAL": 15, "POSITION": 22, "_BATCHID": 4 },
          "indices": 11,
          "material": 2,
          "mode": 4
        },
        {
          "attributes": { "NORMAL": 16, "POSITION": 23, "_BATCHID": 5 },
          "indices": 12,
          "material": 3,
          "mode": 4
        }
      ],
      "name": "Mesh_0"
    }
  ],
  "nodes": [{ "name": "rootNode", "mesh": 0 }],
  "samplers": [
    {
      "magFilter": 9729,
      "minFilter": 9729,
      "name": "sampler_0",
      "wrapS": 10497,
      "wrapT": 10497
    }
  ],
  "scene": 0,
  "scenes": [{ "nodes": [0], "name": "defaultScene" }],
  "textures": [{ "sampler": 0, "source": 0, "name": "texture_1" }],
  "asset": { "version": "2.0" },
  "extensionsRequired": [
    "CESIUM_RTC",
    "WEB3D_quantized_attributes",
    "KHR_techniques_webgl"
  ]
}
